<svg xmlns="http://www.w3.org/2000/svg" viewBox="0 0 918 900" width="918" height="900">
  <!-- head -->
  <path fill="#3ddc84" d="M 714.0 312.5 L 198.0 312.5 L 195.5 296.0 L 195.5 263.0 L 197.5 245.0 L 206.5 207.0 L 217.5 179.0 L 233.5 150.0 L 256.5 120.0 L 278.0 98.5 L 303.5 80.0 L 263.5 17.0 L 261.5 13.0 L 262.5 5.0 L 269.0 -0.5 L 277.0 -0.5 L 282.5 4.0 L 324.0 68.5 L 351.0 55.5 L 374.0 47.5 L 402.0 40.5 L 430.0 36.5 L 479.0 36.5 L 509.0 40.5 L 535.0 46.5 L 556.0 53.5 L 587.0 67.5 L 614.5 27.0 L 627.5 5.0 L 634.0 -0.5 L 642.0 -0.5 L 647.0 2.5 L 649.5 7.0 L 648.5 16.0 L 606.5 81.0 L 637.0 103.5 L 657.5 124.0 L 672.5 143.0 L 690.5 173.0 L 705.5 212.0 L 711.5 238.0 L 714.5 264.0 L 714.0 312.5 Z" />

  <!-- mustache -->
  <path fill="#ffffff" d="M 568.0 312.5 L 527.0 288.5 L 505.0 283.5 L 488.0 284.5 L 477.0 287.5 L 467.0 292.5 L 457.0 301.5 L 451.0 300.5 L 439.0 290.5 L 426.0 285.5 L 415.0 283.5 L 396.0 284.5 L 380.0 289.5 L 343.0 312.5 Z" />

  <!-- hair -->
  <path fill="#ffffff" d="M 225.5 266.0 L 236.0 263.5 L 242.0 259.5 L 247.5 254.0 L 252.5 245.0 L 254.5 238.0 L 254.5 226.0 L 249.5 213.0 L 258.0 212.5 L 270.0 208.5 L 275.0 205.5 L 285.5 194.0 L 291.5 178.0 L 292.0 160.5 L 307.0 164.5 L 322.0 162.5 L 329.0 158.5 L 335.5 152.0 L 341.0 139.5 L 349.0 148.5 L 355.0 151.5 L 362.0 153.5 L 374.0 153.5 L 379.0 152.5 L 391.0 145.5 L 397.5 138.0 L 400.0 132.5 L 407.0 139.5 L 418.0 146.5 L 433.0 148.5 L 446.0 143.5 L 452.5 138.0 L 456.0 132.5 L 463.0 140.5 L 472.0 145.5 L 490.0 146.5 L 501.0 141.5 L 511.0 130.5 L 515.5 140.0 L 524.0 148.5 L 533.0 152.5 L 552.0 152.5 L 564.0 146.5 L 571.0 138.5 L 576.5 151.0 L 583.0 157.5 L 590.0 161.5 L 598.0 163.5 L 607.0 163.5 L 619.0 159.5 L 618.5 174.0 L 620.5 184.0 L 629.5 199.0 L 637.0 205.5 L 645.0 209.5 L 661.5 212.0 L 657.5 220.0 L 655.5 229.0 L 657.5 244.0 L 661.5 251.0 L 667.0 257.5 L 676.0 263.5 L 682.0 265.5 L 693.0 265.5 L 693.5 262.0 L 684.5 216.0 L 671.5 180.0 L 651.5 146.0 L 626.0 118.5 L 604.0 102.5 L 585.0 91.5 L 549.0 75.5 L 526.0 67.5 L 488.0 59.5 L 467.0 57.5 L 440.0 57.5 L 399.0 63.5 L 370.0 72.5 L 338.0 87.5 L 329.0 93.5 L 321.0 95.5 L 307.0 103.5 L 286.0 118.5 L 266.5 138.0 L 256.5 151.0 L 248.5 164.0 L 235.5 191.0 L 225.5 221.0 L 217.5 262.0 L 218.0 265.5 L 225.5 266.0 Z" />

  <!-- eyes -->
  <path fill="#ffffff" d="M 552.5 249.0 L 559.0 248.5 L 565.0 245.5 L 573.5 237.0 L 576.5 229.0 L 575.5 217.0 L 570.5 209.0 L 565.0 204.5 L 555.0 200.5 L 547.0 201.5 L 540.0 204.5 L 530.5 215.0 L 528.5 222.0 L 528.5 229.0 L 533.5 240.0 L 543.0 247.5 L 552.5 249.0 Z" />
  <path fill="#ffffff" d="M 363.5 249.0 L 369.0 247.5 L 377.5 240.0 L 381.5 232.0 L 382.5 222.0 L 378.5 212.0 L 371.0 204.5 L 364.0 201.5 L 353.0 201.5 L 345.0 205.5 L 338.5 213.0 L 335.5 221.0 L 335.5 230.0 L 340.5 240.0 L 346.0 245.5 L 356.0 249.5 L 363.5 249.0 Z" />

  <!-- torso/legs -->
  <path fill="#3ddc84" d="M 571.0 867.5 L 551.0 867.5 L 532.0 860.5 L 515.5 847.0 L 506.5 833.0 L 501.5 815.0 L 501.0 727.5 L 408.5 728.0 L 408.5 820.0 L 400.5 840.0 L 393.5 849.0 L 384.0 857.5 L 365.0 866.5 L 339.0 867.5 L 326.0 863.5 L 317.0 858.5 L 303.5 846.0 L 295.5 832.0 L 291.5 816.0 L 292.5 728.0 L 251.0 727.5 L 238.0 723.5 L 228.0 718.5 L 222.0 714.5 L 209.5 702.0 L 203.5 693.0 L 197.5 678.0 L 197.0 329.5 L 296.0 329.5 L 714.5 330.0 L 714.5 671.0 L 712.5 680.0 L 706.5 694.0 L 699.5 704.0 L 691.0 712.5 L 679.0 720.5 L 659.0 727.5 L 619.5 728.0 L 619.5 817.0 L 615.5 833.0 L 607.5 846.0 L 598.0 855.5 L 587.0 862.5 L 571.0 867.5 Z" />

  <!-- beard -->
  <path fill="#ffffff" d="M 300.5 329.5 L 309.0 349.5 L 320.0 355.5 L 326.5 357.0 L 320.5 364.0 L 314.5 375.0 L 313.5 393.0 L 316.5 401.0 L 321.0 405.5 L 331.0 409.5 L 339.5 410.0 L 338.5 427.0 L 343.5 439.0 L 353.0 448.5 L 360.0 451.5 L 372.0 452.5 L 382.0 449.5 L 383.5 460.0 L 386.5 467.0 L 395.0 475.5 L 399.0 477.5 L 416.0 478.5 L 427.0 472.5 L 431.5 482.0 L 439.0 489.5 L 450.0 494.5 L 460.0 494.5 L 471.0 489.5 L 477.5 483.0 L 483.0 472.5 L 496.0 478.5 L 512.0 477.5 L 523.5 468.0 L 527.5 459.0 L 529.0 448.5 L 539.0 452.5 L 550.0 451.5 L 557.0 448.5 L 565.5 441.0 L 570.5 432.0 L 572.5 424.0 L 570.5 410.0 L 579.0 409.5 L 588.0 406.5 L 594.5 400.0 L 597.5 393.0 L 598.5 386.0 L 595.5 372.0 L 584.5 357.0 L 595.0 354.5 L 600.0 351.5 L 610.5 329.5 Z" />

  <!-- arms -->
  <path fill="#3ddc84" d="M 132.0 634.5 L 112.0 632.5 L 100.0 627.5 L 93.0 622.5 L 81.5 609.0 L 74.5 590.0 L 74.5 362.0 L 81.5 344.0 L 93.0 330.5 L 106.0 322.5 L 120.0 318.5 L 140.0 319.5 L 157.0 327.5 L 167.5 337.0 L 172.5 344.0 L 178.5 360.0 L 178.5 591.0 L 173.5 606.0 L 168.5 614.0 L 159.0 623.5 L 145.0 631.5 L 132.0 634.5 Z" />
  <path fill="#3ddc84" d="M 788.0 634.5 L 769.0 632.5 L 752.0 623.5 L 742.5 614.0 L 737.5 606.0 L 732.5 590.0 L 732.5 362.0 L 739.5 343.0 L 749.0 331.5 L 763.0 322.5 L 777.0 318.5 L 792.0 318.5 L 805.0 322.5 L 814.0 327.5 L 823.5 336.0 L 830.5 346.0 L 836.5 362.0 L 836.5 589.0 L 830.5 607.0 L 820.0 620.5 L 802.0 631.5 L 788.0 634.5 Z" />

  <!-- mouth -->
  <path fill="#3ddc84" d="M 509.0 376.5 L 491.0 375.5 L 473.0 370.5 L 461.0 363.5 L 455.0 357.5 L 437.0 369.5 L 422.0 374.5 L 409.0 376.5 L 397.0 376.5 L 380.0 373.5 L 372.0 369.5 L 368.5 366.0 L 367.5 361.0 L 376.0 357.5 L 400.0 355.5 L 422.0 349.5 L 438.0 341.5 L 445.0 336.5 L 451.0 329.5 L 455.0 328.5 L 472.0 342.5 L 487.0 349.5 L 508.0 355.5 L 538.0 358.5 L 541.5 361.0 L 541.5 365.0 L 537.0 369.5 L 531.0 372.5 L 509.0 376.5 Z" />

  <!-- toga stripes -->
  <path fill="#ffffff" d="M 402.5 699.0 L 443.0 677.5 L 483.0 650.5 L 520.0 619.5 L 565.5 572.0 L 596.5 531.0 L 631.5 473.0 L 665.5 400.0 L 676.5 370.0 L 679.0 358.5 L 659.0 357.5 L 647.5 381.0 L 629.5 409.0 L 610.5 434.0 L 589.5 458.0 L 566.0 481.5 L 542.0 502.5 L 511.0 526.5 L 474.0 551.5 L 441.0 570.5 L 401.0 590.5 L 353.0 609.5 L 288.0 628.5 L 258.0 634.5 L 228.5 638.0 L 228.5 665.0 L 230.5 672.0 L 235.0 679.5 L 300.0 666.5 L 361.0 647.5 L 395.0 633.5 L 430.0 616.5 L 482.0 586.5 L 532.0 550.5 L 552.0 533.5 L 580.0 505.5 L 580.5 507.0 L 566.5 525.0 L 541.5 554.0 L 498.0 596.5 L 461.0 625.5 L 427.0 647.5 L 384.0 670.5 L 349.0 685.5 L 305.5 699.0 L 402.5 699.0 Z" />
  <path fill="#ffffff" d="M 542.5 701.0 L 575.5 669.0 L 603.5 634.0 L 628.5 594.0 L 646.0 555.5 L 646.5 560.0 L 642.5 585.0 L 635.5 610.0 L 629.5 624.0 L 604.5 669.0 L 580.5 699.0 L 650.0 698.5 L 668.0 689.5 L 674.5 683.0 L 679.5 675.0 L 682.5 665.0 L 682.0 408.5 L 669.5 446.0 L 647.5 497.0 L 624.5 540.0 L 602.5 574.0 L 580.5 604.0 L 550.5 639.0 L 518.0 671.5 L 481.5 701.0 L 542.5 701.0 Z " />
</svg>
